<svg width="51" height="60" viewBox="0 0 51 60" fill="none" xmlns="http://www.w3.org/2000/svg">
<path fill-rule="evenodd" clip-rule="evenodd" d="M34.6568 0C44.4193 0 50.0201 4.83235 50.0201 13.2508V55.0871C50.0201 56.8427 49.1164 58.4228 47.5968 59.3064C46.0829 60.1928 44.2582 60.2101 42.727 59.3467L25.5734 49.6561L8.2616 59.3668C7.51329 59.787 6.69303 60 5.86989 60C5.02085 60 4.17181 59.7726 3.40047 59.3179C1.88371 58.4343 0.97998 56.8542 0.97998 55.1015V12.7241C0.97998 4.63664 6.58366 0 16.3549 0H34.6568ZM34.6568 4.31717H16.3549C9.01855 4.31717 5.29715 7.14347 5.29715 12.7241V55.1015C5.29715 55.372 5.45257 55.5188 5.58208 55.5936C5.7116 55.6742 5.91594 55.7318 6.15195 55.5994L24.5201 45.2957C25.1763 44.9302 25.9793 44.9273 26.6383 45.2986L44.8482 55.585C45.0871 55.7231 45.2914 55.6598 45.4209 55.5821C45.5504 55.5044 45.703 55.3576 45.703 55.0871L45.7019 12.9229C45.6801 10.4457 45.2009 4.31717 34.6568 4.31717ZM35.9197 19.3654C37.1112 19.3654 38.0783 20.3324 38.0783 21.524C38.0783 22.7155 37.1112 23.6825 35.9197 23.6825H14.8577C13.6661 23.6825 12.6991 22.7155 12.6991 21.524C12.6991 20.3324 13.6661 19.3654 14.8577 19.3654H35.9197Z" fill="white"/>
</svg>
