<svg width="52" height="60" viewBox="0 0 52 60" fill="none" xmlns="http://www.w3.org/2000/svg">
<path fill-rule="evenodd" clip-rule="evenodd" d="M33.3969 0C33.5269 0 33.6543 0.0109662 33.7783 0.0320234L34.1864 0.0344317C34.8025 0.0344317 35.3915 0.285119 35.8204 0.729107L51.1214 16.6674C51.5231 17.0872 51.7499 17.652 51.7499 18.2349V45.9917C51.7979 53.5697 45.8902 59.7282 38.3001 60H13.7146C6.34433 59.8416 0.433345 53.8858 0.251104 46.5905L0.25 13.5625C0.428199 6.06904 6.61383 0.0344317 14.0499 0.0344317L33.0154 0.0320234C33.1395 0.0109662 33.2669 0 33.3969 0ZM31.1298 4.56371L14.0589 4.56492C9.05425 4.56492 4.89828 8.6182 4.78049 13.6168V45.9917C4.67176 51.1293 8.719 55.3578 13.8082 55.4695H38.2215C43.2625 55.2883 47.2523 51.1293 47.2193 46.0068L47.2191 21.0909L41.1531 21.094C35.6229 21.0789 31.1316 16.5725 31.1316 11.0514L31.1298 4.56371ZM24.8367 21.6222C25.4619 21.6222 26.0282 21.8759 26.4382 22.2859L26.4414 22.2879L33.5271 29.4038C34.409 30.2918 34.406 31.7234 33.521 32.6053C32.633 33.4873 31.1984 33.4873 30.3164 32.5993L27.1007 29.3697L27.1019 42.1333C27.1019 43.3837 26.0871 44.3985 24.8367 44.3985C23.5863 44.3985 22.5714 43.3837 22.5714 42.1333L22.5702 29.3697L19.3587 32.5993C18.9177 33.0463 18.3348 33.2668 17.7549 33.2668C17.178 33.2668 16.5981 33.0463 16.1572 32.6053C15.2722 31.7234 15.2662 30.2918 16.1511 29.4038L23.2308 22.2879L23.3318 22.1948C23.3755 22.1559 23.4207 22.1187 23.4673 22.0832L23.2308 22.2879C23.315 22.2034 23.4057 22.1272 23.5015 22.0594C23.8745 21.7844 24.3368 21.6222 24.8367 21.6222ZM35.6603 7.10381L35.6621 11.0514C35.6621 14.0838 38.1267 16.5544 41.1591 16.5635L44.7364 16.5605L35.6603 7.10381Z" fill="white"/>
</svg>
