<svg width="65" height="60" viewBox="0 0 65 60" fill="none" xmlns="http://www.w3.org/2000/svg">
<path fill-rule="evenodd" clip-rule="evenodd" d="M46.0267 0C56.3757 0 64.7938 8.41809 64.7938 18.7701V41.2299C64.7938 51.5788 56.3757 60 46.0267 60H18.9762C8.62727 60 0.206055 51.5788 0.206055 41.2299V18.7701C0.206055 8.41809 8.62727 0 18.9762 0H46.0267ZM46.0267 4.6941H18.9762C11.2153 4.6941 4.90016 11.0092 4.90016 18.7701V41.2299C4.90016 48.9908 11.2153 55.3059 18.9762 55.3059H46.0267C53.7877 55.3059 60.0997 48.9908 60.0997 41.2299V40.3536L49.7792 40.3555C43.8427 40.3555 39.0109 35.5268 39.0078 29.5935C39.0078 23.6539 43.8396 18.8221 49.7792 18.819L60.0997 18.8171V18.7701C60.0997 11.0092 53.7877 4.6941 46.0267 4.6941ZM60.0997 23.5112L49.7792 23.5131C46.4276 23.5162 43.7019 26.2419 43.7019 29.5904C43.7019 32.9357 46.4307 35.6614 49.7792 35.6614L60.0997 35.6595V23.5112ZM51.2112 27.0493C52.5068 27.0493 53.5583 28.1008 53.5583 29.3963C53.5583 30.6919 52.5068 31.7434 51.2112 31.7434H50.2348C48.9393 31.7434 47.8878 30.6919 47.8878 29.3963C47.8878 28.1008 48.9393 27.0493 50.2348 27.0493H51.2112ZM33.6437 14.2015C34.9393 14.2015 35.9907 15.253 35.9907 16.5486C35.9907 17.8442 34.9393 18.8956 33.6437 18.8956H16.7481C15.4525 18.8956 14.401 17.8442 14.401 16.5486C14.401 15.253 15.4525 14.2015 16.7481 14.2015H33.6437Z" fill="white"/>
</svg>
