<svg width="255" height="124" viewBox="0 0 255 124" fill="none" xmlns="http://www.w3.org/2000/svg">
<rect width="124" height="124" fill="white"/>
<path fill-rule="evenodd" clip-rule="evenodd" d="M31 35.3847L48.8971 29.2068L49.1103 61.7116L31.1889 55.3307L31 35.3847Z" fill="#434242"/>
<path fill-rule="evenodd" clip-rule="evenodd" d="M67.2051 39.2836L49.4622 29.6048L67.4146 19.0959L85.1214 28.5289L67.2051 39.2836Z" fill="#5B5B5B"/>
<path fill-rule="evenodd" clip-rule="evenodd" d="M85.1216 28.5288L67.2053 39.2835L67.4075 51.6462L85.2652 62.5463L85.1216 28.5288Z" fill="#9D9E9E"/>
<path fill-rule="evenodd" clip-rule="evenodd" d="M49.2153 61.4645L67.4074 51.6462L85.2651 62.5464L49.4585 82.6322L49.2153 61.4645Z" fill="#C5C6C6"/>
<path fill-rule="evenodd" clip-rule="evenodd" d="M31.2524 71.3632L31.6736 96.9708L49.1934 104.835L49.1104 61.5854L31.2524 71.3632Z" fill="#434242"/>
<path fill-rule="evenodd" clip-rule="evenodd" d="M76.3404 67.5527L57.6562 78.1607L75.3925 88.2505L92.9999 76.5711L76.3404 67.5527Z" fill="#5B5B5B"/>
<path d="M155.588 49.436C155.588 51.416 154.508 52.604 152.204 52.604L148.388 52.604L148.388 46.34L152.204 46.34C154.508 46.34 155.588 47.564 155.588 49.436ZM142.232 41.228L142.232 66.5L148.388 66.5L148.388 56.96L149.864 56.96L155.12 66.5L162.068 66.5L156.236 56.492C160.124 55.34 161.852 52.352 161.852 49.184C161.852 44.792 158.756 41.228 152.564 41.228L142.232 41.228ZM165.716 66.5L171.872 66.5L171.872 41.228L165.716 41.228L165.716 66.5ZM174.966 46.16L181.662 46.16L181.662 66.5L187.818 66.5L187.818 46.16L194.514 46.16L194.514 41.228L174.966 41.228L174.966 46.16ZM213.335 66.5L219.491 66.5L219.491 41.228L213.335 41.228L213.335 51.128L203.759 51.128L203.759 41.228L197.603 41.228L197.603 66.5L203.759 66.5L203.759 56.096L213.335 56.096L213.335 66.5ZM223.935 66.5L230.091 66.5L230.091 51.308L235.779 66.5L240.747 66.5L246.399 51.344L246.399 66.5L252.555 66.5L252.555 41.228L245.319 41.228L238.299 58.724L231.207 41.228L223.935 41.228L223.935 66.5Z" fill="white"/>
<path d="M146.888 70.724L141.92 70.724L141.92 87.5L146.888 87.5C152.48 87.5 155.768 84.356 155.768 79.148C155.768 73.892 152.48 70.724 146.888 70.724ZM143.6 86.108L143.6 72.116L146.888 72.116C151.64 72.116 154.064 74.804 154.064 79.148C154.064 83.468 151.64 86.108 146.888 86.108L143.6 86.108ZM170.049 87.5L171.825 87.5L165.729 70.94L163.833 70.94L157.713 87.5L159.489 87.5L160.953 83.516L168.585 83.516L170.049 87.5ZM168.081 82.124L161.457 82.124L164.769 73.052L168.081 82.124ZM190.362 79.1C190.362 74.084 186.786 70.532 182.058 70.532C177.354 70.532 173.754 74.084 173.754 79.1C173.754 84.14 177.354 87.668 182.058 87.668C186.786 87.668 190.362 84.14 190.362 79.1ZM175.482 79.1C175.482 74.708 178.338 72.02 182.058 72.02C185.778 72.02 188.634 74.708 188.634 79.1C188.634 83.492 185.778 86.204 182.058 86.204C178.338 86.204 175.482 83.492 175.482 79.1Z" fill="white"/>
</svg>
