<svg width="33" height="32" viewBox="0 0 33 32" fill="none" xmlns="http://www.w3.org/2000/svg">
<g clip-path="url(#clip0_511_417)">
<path d="M29.9662 6.31107L32.5195 3.86841V3.33374H23.6742L17.3702 19.0244L10.1982 3.33374H0.923531V3.86841L3.9062 7.45907C4.19686 7.72441 4.34886 8.11241 4.3102 8.50307V22.6137C4.4022 23.1217 4.23686 23.6444 3.87953 24.0137L0.519531 28.0857V28.6137H10.0462V28.0791L6.6862 24.0137C6.3222 23.6431 6.1502 23.1297 6.22353 22.6137V10.4084L14.5862 28.6204H15.5582L22.7489 10.4084V24.9164C22.7489 25.2991 22.7489 25.3777 22.4982 25.6284L19.9115 28.1311V28.6671H32.4609V28.1324L29.9675 25.6911C29.7489 25.5257 29.6355 25.2484 29.6822 24.9791V7.02307C29.6355 6.75241 29.7475 6.47507 29.9662 6.31107Z" fill="white"/>
</g>
<defs>
<clipPath id="clip0_511_417">
<rect width="32" height="32" fill="white" transform="translate(0.519531)"/>
</clipPath>
</defs>
</svg>
