<svg width="33" height="32" viewBox="0 0 33 32" fill="none" xmlns="http://www.w3.org/2000/svg">
<g clip-path="url(#clip0_511_408)">
<path d="M32.0776 6.078C30.8876 6.6 29.6196 6.946 28.2976 7.114C29.6576 6.302 30.6956 5.026 31.1836 3.488C29.9156 4.244 28.5156 4.778 27.0236 5.076C25.8196 3.794 24.1036 3 22.2316 3C18.5996 3 15.6756 5.948 15.6756 9.562C15.6756 10.082 15.7196 10.582 15.8276 11.058C10.3736 10.792 5.54764 8.178 2.30564 4.196C1.73964 5.178 1.40764 6.302 1.40764 7.512C1.40764 9.784 2.57764 11.798 4.32164 12.964C3.26764 12.944 2.23364 12.638 1.35764 12.156C1.35764 12.176 1.35764 12.202 1.35764 12.228C1.35764 15.416 3.63164 18.064 6.61364 18.674C6.07964 18.82 5.49764 18.89 4.89364 18.89C4.47364 18.89 4.04964 18.866 3.65164 18.778C4.50164 21.376 6.91364 23.286 9.78164 23.348C7.54964 25.094 4.71564 26.146 1.64764 26.146C1.10964 26.146 0.593637 26.122 0.0776367 26.056C2.98364 27.93 6.42764 29 10.1416 29C22.2136 29 28.8136 19 28.8136 10.332C28.8136 10.042 28.8036 9.762 28.7896 9.484C30.0916 8.56 31.1856 7.406 32.0776 6.078Z" fill="white"/>
</g>
<defs>
<clipPath id="clip0_511_408">
<rect width="32" height="32" fill="white" transform="translate(0.0776367)"/>
</clipPath>
</defs>
</svg>
